# xmcd CD database file
#
# Track frame offsets:
#	150
#	19656
#	46810
#	69930
#	87401
#	109973
#	126254
#	151806
#	174391
#	193352
#	206068
#	230204
#
# Disc length: 3333 seconds
#
# Revision: 5
# Processed by: cddbd v1.5.1PL0 Copyright (c) Steve Scherf et al.
# Submitted via: CDex 1.51
#
DISCID=a60d030c
DTITLE=Various Artist - Vocal Room URBAN NU SOUL
DYEAR=2005
DGENRE=INTERNATIONAL(POPS)
TTITLE0=On My Mind
TTITLE1=Groovy Night(Club 70's Remix)
TTITLE2=Because Of You
TTITLE3=The Thing
TTITLE4=The Reason(DJ Spinna Remix)
TTITLE5=Heaven(Dominatrix Edit)
TTITLE6=Visions
TTITLE7=Nothing Comes From Nothing(At Jazz Remix)
TTITLE8=Mama Blues
TTITLE9=It's You
TTITLE10=Home
TTITLE11=Special Love(Steve Silk Hurley Remix)
EXTD=YEAR: 2005
EXTT0=
EXTT1=
EXTT2=
EXTT3=
EXTT4=
EXTT5=
EXTT6=
EXTT7=
EXTT8=
EXTT9=
EXTT10=
EXTT11=
PLAYORDER=
